<svg xmlns="http://www.w3.org/2000/svg" width="28" height="28" fill="none"><mask id="a" width="28" height="28" x="0" y="0" maskUnits="userSpaceOnUse" style="mask-type:alpha"><path fill="#005374" d="M0 0h28v28H0z"/></mask><g mask="url(#a)"><path fill="#005374" d="M5.833 24.5c-.991 0-1.696-.442-2.114-1.327-.418-.885-.316-1.706.306-2.465l6.475-7.875v-7H9.333c-.33 0-.607-.111-.83-.335a1.129 1.129 0 0 1-.336-.831c0-.33.112-.608.335-.832.224-.223.5-.335.831-.335h9.334c.33 0 .607.112.831.335.224.224.335.501.335.832 0 .33-.111.607-.335.83-.224.225-.5.336-.831.336H17.5v7l6.475 7.875c.622.759.724 1.58.306 2.465-.418.885-1.123 1.327-2.114 1.327H5.833Zm0-2.333h16.334l-7-8.517V5.833h-2.334v7.817l-7 8.517Z"/></g></svg>