<svg xmlns="http://www.w3.org/2000/svg" width="32" height="32" fill="none"><mask id="a" width="32" height="32" x="0" y="0" maskUnits="userSpaceOnUse" style="mask-type:alpha"><path fill="#0D5215" d="M0 0h32v32H0z"/></mask><g mask="url(#a)"><path fill="#0D5215" d="m18.067 16.633 4.266-2.866c.4-.267.6-.634.6-1.1 0-.467-.2-.834-.6-1.1L18.067 8.7c-.445-.311-.9-.333-1.367-.067-.467.267-.7.667-.7 1.2V15.5c0 .533.233.933.7 1.2.467.267.922.244 1.367-.067ZM12 22.667a2.568 2.568 0 0 1-1.883-.784A2.568 2.568 0 0 1 9.333 20V5.333c0-.733.261-1.36.784-1.883A2.568 2.568 0 0 1 12 2.667h14.667c.733 0 1.36.26 1.883.783.522.522.783 1.15.783 1.883V20c0 .733-.26 1.361-.783 1.883a2.568 2.568 0 0 1-1.883.784H12ZM12 20h14.667V5.333H12V20Zm-4.4 9.167a2.648 2.648 0 0 1-1.983-.534A2.506 2.506 0 0 1 4.6 26.867L2.833 12.3c-.089-.733.1-1.389.567-1.967A2.772 2.772 0 0 1 5.2 9.3h.067c.377-.067.716.033 1.016.3.3.267.45.6.45 1 0 .333-.116.622-.35.867-.233.244-.516.4-.85.466H5.5l1.8 14.6L23.1 24.6c.378-.045.711.044 1 .267.289.222.456.522.5.9.044.377-.044.705-.267.983a1.298 1.298 0 0 1-.9.483L7.6 29.167Z"/></g></svg>