<svg xmlns="http://www.w3.org/2000/svg" width="60" height="60" fill="none"><circle cx="30" cy="30" r="28" fill="#FAFCFF"/><g filter="url(#a)"><g filter="url(#b)"><path stroke="#4193E5" stroke-linecap="round" stroke-linejoin="round" stroke-width="3" d="M42.923 16H17.077C15.377 16 14 17.323 14 18.954v15.364c0 1.632 1.378 2.955 3.077 2.955h25.846c1.7 0 3.077-1.323 3.077-2.955V18.955C46 17.322 44.623 16 42.923 16Z"/></g><path stroke="#4193E5" stroke-linecap="round" stroke-linejoin="round" stroke-width="3" d="M30 37.273V42"/><g filter="url(#c)"><path stroke="#4193E5" stroke-linecap="round" stroke-linejoin="round" stroke-width="3" d="M23.846 42h12.308"/></g><path fill="#4193E5" d="M23.72 27.072a2.43 2.43 0 1 0-.846-4.785 2.43 2.43 0 0 0 .846 4.785ZM35.84 24.24a2.43 2.43 0 1 0-.845-4.784 2.43 2.43 0 0 0 .846 4.785ZM37.123 31.484a2.43 2.43 0 1 0-.846-4.785 2.43 2.43 0 0 0 .846 4.785Z"/><path stroke="#4193E5" stroke-linecap="round" stroke-linejoin="round" d="m22.995 24.222 12.12-2.052M35.472 22.41l1.283 6.983M23.049 24.513l13.403 4.931"/></g><defs><filter id="a" width="43" height="37" x="8.5" y="12.5" color-interpolation-filters="sRGB" filterUnits="userSpaceOnUse"><feFlood flood-opacity="0" result="BackgroundImageFix"/><feColorMatrix in="SourceAlpha" result="hardAlpha" values="0 0 0 0 0 0 0 0 0 0 0 0 0 0 0 0 0 0 127 0"/><feOffset dy="2"/><feGaussianBlur stdDeviation="2"/><feComposite in2="hardAlpha" operator="out"/><feColorMatrix values="0 0 0 0 0.301961 0 0 0 0 0.623529 0 0 0 0 0.74902 0 0 0 0.25 0"/><feBlend in2="BackgroundImageFix" result="effect1_dropShadow_106_2"/><feBlend in="SourceGraphic" in2="effect1_dropShadow_106_2" result="shape"/></filter><filter id="b" width="37" height="26.273" x="11.5" y="14" color-interpolation-filters="sRGB" filterUnits="userSpaceOnUse"><feFlood flood-opacity="0" result="BackgroundImageFix"/><feColorMatrix in="SourceAlpha" result="hardAlpha" values="0 0 0 0 0 0 0 0 0 0 0 0 0 0 0 0 0 0 127 0"/><feOffset dy=".5"/><feGaussianBlur stdDeviation=".5"/><feComposite in2="hardAlpha" operator="out"/><feColorMatrix values="0 0 0 0 0 0 0 0 0 0 0 0 0 0 0 0 0 0 0.1 0"/><feBlend in2="BackgroundImageFix" result="effect1_dropShadow_106_2"/><feBlend in="SourceGraphic" in2="effect1_dropShadow_106_2" result="shape"/></filter><filter id="c" width="19.308" height="7" x="20.346" y="39" color-interpolation-filters="sRGB" filterUnits="userSpaceOnUse"><feFlood flood-opacity="0" result="BackgroundImageFix"/><feColorMatrix in="SourceAlpha" result="hardAlpha" values="0 0 0 0 0 0 0 0 0 0 0 0 0 0 0 0 0 0 127 0"/><feOffset dy=".5"/><feGaussianBlur stdDeviation="1"/><feComposite in2="hardAlpha" operator="out"/><feColorMatrix values="0 0 0 0 0 0 0 0 0 0 0 0 0 0 0 0 0 0 0.2 0"/><feBlend in2="BackgroundImageFix" result="effect1_dropShadow_106_2"/><feBlend in="SourceGraphic" in2="effect1_dropShadow_106_2" result="shape"/></filter></defs></svg>