<svg xmlns="http://www.w3.org/2000/svg" width="136" height="38" fill="none"><g clip-path="url(#a)"><g filter="url(#b)"><g filter="url(#c)"><path stroke="#4193E5" stroke-linecap="round" stroke-linejoin="round" stroke-width="3" d="M31.894 5.938H6.619c-1.661 0-3.008 1.329-3.008 2.968v15.438c0 1.64 1.347 2.968 3.008 2.968h25.275c1.662 0 3.009-1.329 3.009-2.968V8.906c0-1.64-1.347-2.969-3.01-2.969Z"/></g><path stroke="#4193E5" stroke-linecap="round" stroke-linejoin="round" stroke-width="3" d="M19.257 27.313v4.75"/><g filter="url(#d)"><path stroke="#4193E5" stroke-linecap="round" stroke-linejoin="round" stroke-width="3" d="M13.239 32.063h12.035"/></g><path fill="#4193E5" d="M13.121 17.03a2.408 2.408 0 1 0-.838-4.743 2.408 2.408 0 0 0 .838 4.743ZM24.974 14.185a2.408 2.408 0 1 0-.839-4.743 2.408 2.408 0 0 0 .839 4.743ZM26.227 21.463a2.408 2.408 0 1 0-.837-4.743 2.408 2.408 0 0 0 .837 4.743Z"/><path stroke="#4193E5" stroke-linecap="round" stroke-linejoin="round" d="m12.407 14.2 11.852-2.063M24.608 12.378l1.254 7.017M12.459 14.492l13.107 4.954"/></g><g filter="url(#e)"><path fill="#4193E5" d="M48.984 29.094c-.321 0-.581-.09-.782-.267a1.14 1.14 0 0 1-.331-.654l-3.43-19.03a.259.259 0 0 1-.03-.118v-.09c0-.157.06-.296.18-.415a.573.573 0 0 1 .451-.207h3.16c.521 0 .812.207.872.623l2.257 12.558 2.437-7.808c.06-.158.16-.327.301-.505.14-.178.371-.267.692-.267h1.896c.32 0 .551.09.692.267.14.178.23.347.27.505l2.468 7.778 2.226-12.528c.06-.416.361-.623.903-.623h3.16c.18 0 .33.069.45.207.12.12.181.258.181.416v.089c0 .04-.01.08-.03.119l-3.43 19.03c-.04.257-.16.474-.361.653-.18.178-.431.267-.752.267h-2.438c-.32 0-.571-.08-.752-.238a1.555 1.555 0 0 1-.33-.534l-3.22-9.203-3.19 9.203a1.4 1.4 0 0 1-.36.534c-.161.159-.412.238-.753.238h-2.407Zm27.402.297c-2.307 0-4.142-.634-5.506-1.9-1.344-1.267-2.056-3.108-2.136-5.522V20.692c.08-1.524.43-2.83 1.053-3.919a6.152 6.152 0 0 1 2.617-2.523c1.123-.594 2.437-.89 3.942-.89 1.685 0 3.09.346 4.212 1.038a6.298 6.298 0 0 1 2.558 2.791c.581 1.168.872 2.514.872 4.038v.682c0 .198-.08.367-.24.505a.701.701 0 0 1-.512.208h-9.839v.237c.02.634.14 1.218.361 1.752.241.514.572.93.993 1.247.442.316.963.475 1.565.475.501 0 .912-.07 1.233-.208.322-.139.582-.307.783-.505.22-.198.38-.366.481-.504.18-.198.321-.317.421-.357.12-.059.301-.089.542-.089h3.13c.2 0 .36.06.48.178.141.1.201.248.181.446-.02.316-.19.712-.511 1.187-.301.455-.753.91-1.354 1.366-.602.435-1.354.801-2.257 1.098-.882.297-1.906.446-3.069.446Zm-2.979-9.47h5.898v-.06c0-.713-.12-1.326-.362-1.84-.22-.535-.551-.95-.992-1.248-.442-.296-.973-.445-1.595-.445s-1.153.149-1.595.445c-.441.297-.782.713-1.023 1.247-.22.515-.33 1.128-.33 1.84v.06Zm22.686 9.47c-1.144 0-2.096-.188-2.859-.564-.762-.396-1.384-.891-1.865-1.485v1.01c0 .217-.07.395-.21.534a.738.738 0 0 1-.542.208h-2.859a.739.739 0 0 1-.541-.208.719.719 0 0 1-.211-.534V8.758c0-.218.07-.396.21-.535a.739.739 0 0 1 .542-.207h3.1a.718.718 0 0 1 .722.742v6.472c.501-.555 1.123-1 1.865-1.336.742-.357 1.625-.535 2.648-.535 1.043 0 1.945.178 2.708.535a5.369 5.369 0 0 1 1.986 1.454c.541.614.952 1.346 1.233 2.197.301.851.462 1.791.482 2.82.02.357.03.693.03 1.01 0 .297-.01.633-.03 1.01-.04 1.048-.211 2.008-.512 2.88a6.531 6.531 0 0 1-1.234 2.226 5.233 5.233 0 0 1-1.955 1.425c-.763.316-1.665.475-2.708.475Zm-1.354-3.563c.762 0 1.364-.158 1.805-.475.442-.336.752-.772.933-1.306.2-.535.32-1.118.36-1.752.041-.613.041-1.227 0-1.84a6.044 6.044 0 0 0-.36-1.752 2.52 2.52 0 0 0-.933-1.276c-.441-.337-1.043-.505-1.805-.505-.722 0-1.314.158-1.776.475a3.195 3.195 0 0 0-1.022 1.217c-.221.475-.341.99-.362 1.544a21.347 21.347 0 0 0 0 2.227 5.6 5.6 0 0 0 .361 1.662c.201.514.532.94.993 1.276.462.337 1.064.505 1.806.505Zm11.71 3.266c-.18 0-.33-.06-.451-.178a.67.67 0 0 1-.18-.446c0-.099.01-.188.03-.267l7.161-19.089c.06-.218.18-.406.361-.564.18-.158.431-.238.752-.238h3.851c.321 0 .572.08.753.238.18.158.3.346.361.564l7.161 19.09c.02.078.03.167.03.266 0 .159-.06.307-.181.446a.616.616 0 0 1-.451.178h-3.129c-.301 0-.522-.07-.662-.208-.14-.139-.231-.267-.271-.386l-1.294-3.325h-8.485l-1.294 3.325c-.04.119-.13.247-.27.386-.141.139-.361.208-.662.208h-3.13Zm6.47-7.749h6.228l-3.099-8.55-3.129 8.55Zm16.702 7.749a.74.74 0 0 1-.542-.208.72.72 0 0 1-.211-.534V9.055a.72.72 0 0 1 .211-.535.74.74 0 0 1 .542-.207h3.4c.22 0 .401.069.541.207a.716.716 0 0 1 .211.535v19.297c0 .217-.07.395-.211.534a.737.737 0 0 1-.541.208h-3.4Z"/></g></g><defs><filter id="b" width="42.292" height="37.125" x="-1.889" y="2.438" color-interpolation-filters="sRGB" filterUnits="userSpaceOnUse"><feFlood flood-opacity="0" result="BackgroundImageFix"/><feColorMatrix in="SourceAlpha" result="hardAlpha" values="0 0 0 0 0 0 0 0 0 0 0 0 0 0 0 0 0 0 127 0"/><feOffset dy="2"/><feGaussianBlur stdDeviation="2"/><feComposite in2="hardAlpha" operator="out"/><feColorMatrix values="0 0 0 0 0.301961 0 0 0 0 0.623529 0 0 0 0 0.74902 0 0 0 0.25 0"/><feBlend in2="BackgroundImageFix" result="effect1_dropShadow_101_2138"/><feBlend in="SourceGraphic" in2="effect1_dropShadow_101_2138" result="shape"/></filter><filter id="c" width="36.292" height="26.375" x="1.111" y="3.938" color-interpolation-filters="sRGB" filterUnits="userSpaceOnUse"><feFlood flood-opacity="0" result="BackgroundImageFix"/><feColorMatrix in="SourceAlpha" result="hardAlpha" values="0 0 0 0 0 0 0 0 0 0 0 0 0 0 0 0 0 0 127 0"/><feOffset dy=".5"/><feGaussianBlur stdDeviation=".5"/><feComposite in2="hardAlpha" operator="out"/><feColorMatrix values="0 0 0 0 0 0 0 0 0 0 0 0 0 0 0 0 0 0 0.1 0"/><feBlend in2="BackgroundImageFix" result="effect1_dropShadow_101_2138"/><feBlend in="SourceGraphic" in2="effect1_dropShadow_101_2138" result="shape"/></filter><filter id="d" width="19.035" height="7" x="9.739" y="29.063" color-interpolation-filters="sRGB" filterUnits="userSpaceOnUse"><feFlood flood-opacity="0" result="BackgroundImageFix"/><feColorMatrix in="SourceAlpha" result="hardAlpha" values="0 0 0 0 0 0 0 0 0 0 0 0 0 0 0 0 0 0 127 0"/><feOffset dy=".5"/><feGaussianBlur stdDeviation="1"/><feComposite in2="hardAlpha" operator="out"/><feColorMatrix values="0 0 0 0 0 0 0 0 0 0 0 0 0 0 0 0 0 0 0.2 0"/><feBlend in2="BackgroundImageFix" result="effect1_dropShadow_101_2138"/><feBlend in="SourceGraphic" in2="effect1_dropShadow_101_2138" result="shape"/></filter><filter id="e" width="97.362" height="29.375" x="40.411" y="6.016" color-interpolation-filters="sRGB" filterUnits="userSpaceOnUse"><feFlood flood-opacity="0" result="BackgroundImageFix"/><feColorMatrix in="SourceAlpha" result="hardAlpha" values="0 0 0 0 0 0 0 0 0 0 0 0 0 0 0 0 0 0 127 0"/><feOffset dy="2"/><feGaussianBlur stdDeviation="2"/><feComposite in2="hardAlpha" operator="out"/><feColorMatrix values="0 0 0 0 0.301961 0 0 0 0 0.623529 0 0 0 0 0.74902 0 0 0 0.25 0"/><feBlend in2="BackgroundImageFix" result="effect1_dropShadow_101_2138"/><feBlend in="SourceGraphic" in2="effect1_dropShadow_101_2138" result="shape"/></filter><clipPath id="a"><path fill="#fff" d="M0 0h136v38H0z"/></clipPath></defs></svg>