<svg xmlns="http://www.w3.org/2000/svg" width="28" height="28" fill="none"><g clip-path="url(#a)" filter="url(#b)"><g filter="url(#c)"><path stroke="#92ADC4" stroke-linecap="round" stroke-linejoin="round" stroke-width="2" d="M23.119 4.384H4.92c-1.197 0-2.167.98-2.167 2.188v11.375c0 1.208.97 2.187 2.167 2.187h18.198c1.196 0 2.166-.98 2.166-2.187V6.572c0-1.208-.97-2.188-2.166-2.188Z"/></g><path stroke="#92ADC4" stroke-linecap="round" stroke-linejoin="round" stroke-width="2" d="M14.02 20.134v3.5"/><g filter="url(#d)"><path stroke="#92ADC4" stroke-linecap="round" stroke-linejoin="round" stroke-width="2" d="M9.687 23.634h8.665"/></g><path fill="#92ADC4" d="M9.602 12.396a1.734 1.734 0 1 0-.604-3.415 1.734 1.734 0 0 0 .604 3.415ZM18.136 10.55a1.734 1.734 0 1 0-.604-3.415 1.734 1.734 0 0 0 .604 3.415ZM19.039 15.829a1.734 1.734 0 1 0-.604-3.415 1.734 1.734 0 0 0 .604 3.415Z"/><path stroke="#92ADC4" stroke-linecap="round" stroke-linejoin="round" d="m9.088 10.472 8.534-1.52M17.873 9.13l.902 5.17M9.125 10.688l9.437 3.65"/></g><defs><filter id="b" width="32.531" height="29.25" x="-2.246" y="1.384" color-interpolation-filters="sRGB" filterUnits="userSpaceOnUse"><feFlood flood-opacity="0" result="BackgroundImageFix"/><feColorMatrix in="SourceAlpha" result="hardAlpha" values="0 0 0 0 0 0 0 0 0 0 0 0 0 0 0 0 0 0 127 0"/><feOffset dy="2"/><feGaussianBlur stdDeviation="2"/><feComposite in2="hardAlpha" operator="out"/><feColorMatrix values="0 0 0 0 0.301961 0 0 0 0 0.623529 0 0 0 0 0.74902 0 0 0 0.25 0"/><feBlend in2="BackgroundImageFix" result="effect1_dropShadow_101_1140"/><feBlend in="SourceGraphic" in2="effect1_dropShadow_101_1140" result="shape"/></filter><filter id="c" width="26.531" height="19.75" x=".754" y="2.884" color-interpolation-filters="sRGB" filterUnits="userSpaceOnUse"><feFlood flood-opacity="0" result="BackgroundImageFix"/><feColorMatrix in="SourceAlpha" result="hardAlpha" values="0 0 0 0 0 0 0 0 0 0 0 0 0 0 0 0 0 0 127 0"/><feOffset dy=".5"/><feGaussianBlur stdDeviation=".5"/><feComposite in2="hardAlpha" operator="out"/><feColorMatrix values="0 0 0 0 0 0 0 0 0 0 0 0 0 0 0 0 0 0 0.1 0"/><feBlend in2="BackgroundImageFix" result="effect1_dropShadow_101_1140"/><feBlend in="SourceGraphic" in2="effect1_dropShadow_101_1140" result="shape"/></filter><filter id="d" width="14.666" height="6" x="6.687" y="21.134" color-interpolation-filters="sRGB" filterUnits="userSpaceOnUse"><feFlood flood-opacity="0" result="BackgroundImageFix"/><feColorMatrix in="SourceAlpha" result="hardAlpha" values="0 0 0 0 0 0 0 0 0 0 0 0 0 0 0 0 0 0 127 0"/><feOffset dy=".5"/><feGaussianBlur stdDeviation="1"/><feComposite in2="hardAlpha" operator="out"/><feColorMatrix values="0 0 0 0 0 0 0 0 0 0 0 0 0 0 0 0 0 0 0.2 0"/><feBlend in2="BackgroundImageFix" result="effect1_dropShadow_101_1140"/><feBlend in="SourceGraphic" in2="effect1_dropShadow_101_1140" result="shape"/></filter><clipPath id="a"><path fill="#fff" d="M0 0h28v28H0z"/></clipPath></defs></svg>