<svg xmlns="http://www.w3.org/2000/svg" width="41" height="40" fill="none"><mask id="a" width="41" height="40" x="0" y="0" maskUnits="userSpaceOnUse" style="mask-type:alpha"><path fill="#0D5215" d="M.5 0h40v40H.5z"/></mask><g mask="url(#a)"><path fill="#0D5215" d="M26.163 22.208H8.574a2.13 2.13 0 0 1-1.564-.644c-.43-.43-.644-.95-.644-1.564 0-.614.215-1.135.644-1.564.43-.43.95-.644 1.564-.644h17.589l-7.248-7.249c-.443-.443-.662-.965-.656-1.567.006-.601.23-1.123.674-1.567a2.251 2.251 0 0 1 1.567-.632c.601-.006 1.124.212 1.567.656l11 11c.214.214.375.457.484.73a2.247 2.247 0 0 1 0 1.674c-.11.273-.27.516-.484.73L22.043 32.59a2.11 2.11 0 0 1-1.546.647c-.6 0-1.12-.215-1.564-.647-.444-.443-.665-.968-.665-1.576 0-.607.221-1.132.665-1.576l7.23-7.23Z"/></g></svg>