<svg xmlns="http://www.w3.org/2000/svg" width="60" height="60" fill="none"><mask id="a" width="60" height="60" x="0" y="0" maskUnits="userSpaceOnUse" style="mask-type:alpha"><path fill="#FAB77F" d="M0 0h60v60H0z"/></mask><g mask="url(#a)"><path fill="#FAB77F" d="M18.75 55c-2.417 0-4.48-.854-6.188-2.563C10.854 50.73 10 48.667 10 46.25v-32.5c0-2.417.854-4.48 2.563-6.188C14.27 5.854 16.332 5 18.75 5H45c1.375 0 2.552.49 3.531 1.469C49.511 7.448 50 8.625 50 10v31.313c0 .333-.135.635-.406.906-.271.27-.76.573-1.469.906a3.325 3.325 0 0 0-1.375 1.25c-.333.542-.5 1.167-.5 1.875s.167 1.344.5 1.906a2.89 2.89 0 0 0 1.375 1.219c.583.25 1.042.594 1.375 1.031.333.438.5.907.5 1.407v.624c0 .709-.24 1.313-.719 1.813S48.208 55 47.5 55H18.75Zm3.75-17.5c.708 0 1.302-.24 1.781-.719.48-.479.719-1.073.719-1.781V12.5c0-.708-.24-1.302-.719-1.781-.479-.48-1.073-.719-1.781-.719s-1.302.24-1.781.719c-.48.479-.719 1.073-.719 1.781V35c0 .708.24 1.302.719 1.781.479.48 1.073.719 1.781.719ZM18.75 50h23.313a11.165 11.165 0 0 1-.594-1.781 8.378 8.378 0 0 1-.219-1.969c0-.667.063-1.313.188-1.938a7.19 7.19 0 0 1 .624-1.812H18.75c-1.083 0-1.98.365-2.688 1.094-.708.729-1.062 1.614-1.062 2.656 0 1.083.354 1.98 1.063 2.688.708.708 1.604 1.062 2.687 1.062Z"/></g></svg>