<svg xmlns="http://www.w3.org/2000/svg" width="60" height="60" fill="none"><mask id="a" width="60" height="60" x="0" y="0" maskUnits="userSpaceOnUse" style="mask-type:alpha"><path fill="#FAB77F" d="M0 0h60v60H0z"/></mask><g mask="url(#a)"><path fill="#FAB77F" d="M15.313 30.375a53.919 53.919 0 0 1 3.906-7.938 53.135 53.135 0 0 1 5.156-7.187l-3.25-.688a4.825 4.825 0 0 0-2.438.125c-.791.25-1.479.667-2.062 1.25L8.75 23.812c-.625.625-.865 1.375-.719 2.25.146.875.636 1.48 1.469 1.813l5.813 2.5ZM52.063 6c-4.417-.208-8.615.646-12.594 2.562a38.74 38.74 0 0 0-10.657 7.563c-2 2-3.76 4.166-5.28 6.5A50.146 50.146 0 0 0 19.561 30a4.579 4.579 0 0 0-.312 1.656c0 .563.208 1.052.625 1.469l7.813 7.812c.416.417.906.625 1.468.625a4.58 4.58 0 0 0 1.657-.312 50.143 50.143 0 0 0 7.375-3.969 40.275 40.275 0 0 0 6.5-5.281 38.74 38.74 0 0 0 7.562-10.656c1.917-3.98 2.77-8.178 2.563-12.594 0-.333-.084-.667-.25-1a3.337 3.337 0 0 0-.626-.875 3.337 3.337 0 0 0-.874-.625 2.219 2.219 0 0 0-1-.25ZM36.187 24.625c-.958-.959-1.437-2.136-1.437-3.531 0-1.396.48-2.573 1.438-3.532.958-.958 2.135-1.437 3.53-1.437 1.397 0 2.574.479 3.532 1.437.958.959 1.438 2.136 1.438 3.532 0 1.395-.48 2.572-1.438 3.53-.958.96-2.135 1.438-3.531 1.438-1.396 0-2.573-.479-3.532-1.437ZM30.438 45.5l2.5 5.812c.334.834.938 1.334 1.813 1.5.875.167 1.625-.062 2.25-.687l7.875-7.875c.583-.584 1-1.281 1.25-2.094a4.96 4.96 0 0 0 .125-2.469l-.625-3.25a57.701 57.701 0 0 1-7.219 5.157 51.363 51.363 0 0 1-7.968 3.906Zm-20.312-5.375c1.458-1.459 3.23-2.198 5.313-2.219 2.083-.02 3.854.698 5.312 2.156 1.458 1.459 2.188 3.23 2.188 5.313 0 2.083-.73 3.854-2.188 5.312-2 2-4.365 3.188-7.094 3.563s-5.469.75-8.219 1.125c.375-2.75.76-5.49 1.157-8.219.396-2.729 1.573-5.073 3.531-7.031Z"/></g></svg>