<svg xmlns="http://www.w3.org/2000/svg" width="80" height="80" fill="none"><mask id="a" width="80" height="80" x="0" y="0" maskUnits="userSpaceOnUse" style="mask-type:alpha"><path fill="#4193E5" d="M0 0h80v80H0z"/></mask><g mask="url(#a)"><path fill="#4193E5" d="M18.25 64.687a7 7 0 0 1-2.583-2.703c-.611-1.13-.917-2.397-.917-3.801V40.595l-8-4.855c-.611-.367-1.056-.825-1.333-1.374A4.003 4.003 0 0 1 5 32.534c0-.672.139-1.283.417-1.832.277-.55.722-1.008 1.333-1.375l28.167-16.855a6.321 6.321 0 0 1 1.541-.687 5.818 5.818 0 0 1 1.625-.229c.556 0 1.098.077 1.625.23a6.32 6.32 0 0 1 1.542.686L73 31.526c.556.305.986.748 1.292 1.328a3.97 3.97 0 0 1 .458 1.878v23.45c0 1.04-.32 1.91-.958 2.612-.64.702-1.43 1.053-2.375 1.053-.945 0-1.736-.351-2.375-1.053-.64-.703-.959-1.573-.959-2.611V36.564l-6.666 4.03v17.589c0 1.404-.306 2.672-.917 3.801a7 7 0 0 1-2.583 2.703L41.25 74.58a6.32 6.32 0 0 1-1.542.687c-.527.153-1.07.23-1.625.23a5.818 5.818 0 0 1-1.625-.23 6.321 6.321 0 0 1-1.541-.687L18.25 64.687ZM38.083 46.09l22.834-13.557-22.834-13.558L15.25 32.534 38.083 46.09Zm0 22.077 16.667-9.894V44.443l-13.417 8.153a6.264 6.264 0 0 1-3.25.916 6.264 6.264 0 0 1-3.25-.916l-13.416-8.153v13.833l16.666 9.893Z"/></g></svg>