<svg xmlns="http://www.w3.org/2000/svg" width="460" height="160" fill="none"><mask id="a" width="81" height="82" x="0" y="12" maskUnits="userSpaceOnUse" style="mask-type:alpha"><path fill="#D9D9D9" d="M0 12.872h80.291v80.291H0z"/></mask><g mask="url(#a)"><path fill="#FAB77F" d="M36.8 77.858V54.94L16.727 43.316v22.916L36.8 77.858Zm6.691 0 20.073-11.626V43.316L43.49 54.94v22.916ZM40.146 49.17l19.822-11.458-19.822-11.458-19.822 11.458L40.146 49.17ZM13.382 72.087c-1.06-.614-1.882-1.422-2.467-2.426-.586-1.004-.879-2.119-.879-3.345V39.719c0-1.227.293-2.342.879-3.345.585-1.004 1.407-1.812 2.467-2.426L36.8 20.483c1.06-.614 2.175-.92 3.346-.92 1.17 0 2.286.306 3.345.92l23.418 13.465c1.06.614 1.882 1.422 2.468 2.426.585 1.003.878 2.118.878 3.345v26.597c0 1.226-.293 2.341-.878 3.345-.586 1.004-1.408 1.812-2.468 2.426L43.491 85.552c-1.06.613-2.175.92-3.345.92-1.171 0-2.287-.307-3.346-.92L13.382 72.087Z"/></g><mask id="b" width="100" height="99" x="99" y="54" maskUnits="userSpaceOnUse" style="mask-type:alpha"><path fill="#D9D9D9" d="m120.462 54.213 77.555 20.78-20.78 77.556-77.556-20.78z"/></mask><g mask="url(#b)"><path fill="#FAB77F" d="m139.189 126.509 5.932-22.136-16.38-16.424-5.932 22.135 16.38 16.425Zm6.463 1.732 22.398-6.034 5.931-22.136-22.397 6.034-5.932 22.136Zm4.194-28.576 22.112-5.938-16.181-16.198-22.112 5.938 16.181 16.198Zm-31.783 15.209c-.865-.867-1.45-1.861-1.756-2.982-.306-1.121-.3-2.274.018-3.458l6.884-25.69c.317-1.186.888-2.187 1.714-3.005.825-.818 1.829-1.386 3.011-1.704l26.105-6.946c1.182-.318 2.339-.326 3.47-.022 1.131.303 2.128.887 2.993 1.754l19.135 19.068c.865.866 1.45 1.86 1.756 2.981.305 1.121.3 2.274-.018 3.459l-6.884 25.69c-.317 1.185-.889 2.186-1.714 3.004-.825.818-1.829 1.386-3.011 1.705l-26.105 6.945c-1.182.318-2.339.326-3.47.023-1.131-.303-2.129-.888-2.993-1.755l-19.135-19.067Z"/></g><mask id="c" width="111" height="110" x="217" y="0" maskUnits="userSpaceOnUse" style="mask-type:alpha"><path fill="#D9D9D9" d="m257.605 0 69.534 40.145-40.145 69.535-69.535-40.146z"/></mask><g mask="url(#c)"><path fill="#FAB77F" d="m256.982 74.68 11.459-19.847L256.87 34.73l-11.458 19.846 11.57 20.104Zm5.795 3.345 23.196-.032 11.458-19.846-23.196.032-11.458 19.846Zm11.446-26.517 22.896-.012-11.437-19.834-22.896.012 11.437 19.834Zm-34.636 6.464c-.611-1.06-.919-2.172-.924-3.334-.005-1.162.299-2.274.912-3.336l13.299-23.033c.613-1.063 1.424-1.882 2.433-2.458 1.009-.577 2.125-.866 3.349-.867l27.014.047c1.224-.001 2.343.29 3.357.876 1.014.586 1.827 1.409 2.437 2.47l13.548 23.37c.611 1.061.919 2.173.924 3.335.006 1.161-.298 2.274-.912 3.336L291.726 81.41c-.613 1.063-1.424 1.882-2.433 2.458-1.009.577-2.126.866-3.35.867l-27.013-.047c-1.224.001-2.344-.291-3.358-.876-1.014-.586-1.826-1.41-2.437-2.47l-13.548-23.37Z"/></g><mask id="d" width="114" height="114" x="346" y="46" maskUnits="userSpaceOnUse" style="mask-type:alpha"><path fill="#D9D9D9" d="M403.225 46.451 460 103.225 403.225 160l-56.774-56.775z"/></mask><g mask="url(#d)"><path fill="#FAB77F" d="M383.295 118.424 399.5 102.22l-5.974-22.414-16.204 16.204 5.973 22.414Zm4.731 4.732 22.414 5.973 16.205-16.205-22.414-5.973-16.205 16.205Zm17.92-22.651 22.118 5.914-5.914-22.118-22.118-5.914 5.914 22.118Zm-35.129-2.72c-.316-1.183-.326-2.336-.03-3.46.296-1.124.877-2.12 1.745-2.987l18.806-18.806c.868-.868 1.863-1.45 2.987-1.745 1.123-.296 2.277-.286 3.459.03l26.081 7.037c1.183.316 2.188.888 3.016 1.716.828.827 1.4 1.833 1.715 3.016l7.038 26.08c.316 1.183.325 2.336.03 3.46-.296 1.124-.878 2.119-1.745 2.987l-18.807 18.806c-.867.868-1.862 1.449-2.986 1.745-1.124.296-2.277.286-3.46-.03l-26.081-7.037c-1.182-.316-2.188-.888-3.016-1.715-.828-.828-1.399-1.834-1.715-3.017l-7.037-26.08Z"/></g></svg>