<svg xmlns="http://www.w3.org/2000/svg" width="32" height="32" fill="none"><mask id="a" width="32" height="32" x="0" y="0" maskUnits="userSpaceOnUse" style="mask-type:alpha"><path fill="#0D5215" d="M32 32H0V0h32z"/></mask><g mask="url(#a)"><path fill="#0D5215" d="M23.567 14.867c.2.133.35.3.45.5.1.2.15.41.15.633 0 .222-.05.433-.15.633-.1.2-.25.367-.45.5l-10.867 6.9a1.386 1.386 0 0 1-.7.2c-.356 0-.667-.127-.933-.383a1.263 1.263 0 0 1-.4-.95V9.1c0-.378.133-.694.4-.95a1.307 1.307 0 0 1 1.283-.333c.122.033.239.083.35.15l10.867 6.9Z"/></g></svg>