<svg xmlns="http://www.w3.org/2000/svg" width="80" height="80" fill="none"><mask id="a" width="80" height="80" x="0" y="0" maskUnits="userSpaceOnUse" style="mask-type:alpha"><path fill="#2D4050" d="M0 0h80v80H0z"/></mask><g mask="url(#a)"><path fill="#2D4050" d="m36 40 17.222 17.222c.815.815 1.222 1.852 1.222 3.111 0 1.26-.407 2.297-1.222 3.111-.815.815-1.852 1.223-3.111 1.223-1.26 0-2.296-.408-3.111-1.223L26.555 43c-.444-.444-.759-.926-.944-1.444a4.92 4.92 0 0 1-.278-1.667c0-.593.093-1.148.278-1.667.185-.518.5-1 .944-1.444L47 16.333c.889-.889 1.944-1.333 3.167-1.333 1.222 0 2.277.444 3.166 1.333.89.89 1.334 1.945 1.334 3.167 0 1.222-.445 2.278-1.334 3.167L36 40Z"/></g></svg>